<svg xmlns="http://www.w3.org/2000/svg" viewBox="0 0 96 96" role="img" aria-label="Bao avatar">
  <defs>
    <linearGradient id="bao-bg" x1="0%" y1="0%" x2="100%" y2="100%">
      <stop offset="0%" stop-color="#fb7185"/>
      <stop offset="100%" stop-color="#be123c"/>
    </linearGradient>
    <linearGradient id="bao-ring" x1="0%" y1="0%" x2="100%" y2="100%">
      <stop offset="0%" stop-color="#fff6c8"/>
      <stop offset="100%" stop-color="#ffc83d"/>
    </linearGradient>
  </defs>
  <circle cx="48" cy="48" r="45" fill="url(#bao-ring)"/>
  <circle cx="48" cy="48" r="39" fill="url(#bao-bg)"/>
  <ellipse cx="48" cy="52" rx="22" ry="20" fill="#ffe4e6"/>
  <circle cx="30" cy="34" r="8" fill="#9f1239"/>
  <circle cx="66" cy="34" r="8" fill="#9f1239"/>
  <ellipse cx="38" cy="50" rx="5" ry="6" fill="#fff"/>
  <ellipse cx="58" cy="50" rx="5" ry="6" fill="#fff"/>
  <circle cx="38" cy="51" r="3" fill="#881337"/>
  <circle cx="58" cy="51" r="3" fill="#881337"/>
  <circle cx="39.5" cy="49.5" r="1.2" fill="#fff"/>
  <path d="M58 51 L62 49" stroke="#881337" stroke-width="2" stroke-linecap="round"/>
  <path d="M40 60 Q48 66 56 58" fill="none" stroke="#fda4af" stroke-width="2.4" stroke-linecap="round"/>
  <ellipse cx="34" cy="58" rx="4.5" ry="3" fill="#fb7185" opacity="0.6"/>
  <ellipse cx="62" cy="56" rx="4" ry="2.5" fill="#fb7185" opacity="0.45"/>
  <circle cx="40" cy="78" r="5" fill="#fff" opacity="0.55"/>
  <circle cx="52" cy="74" r="4" fill="#fff" opacity="0.45"/>
  <circle cx="58" cy="80" r="3" fill="#fff" opacity="0.35"/>
</svg>
