<svg xmlns="http://www.w3.org/2000/svg" viewBox="0 0 96 96" role="img" aria-label="Bruno avatar">
  <defs>
    <linearGradient id="bruno-bg" x1="0%" y1="0%" x2="100%" y2="100%">
      <stop offset="0%" stop-color="#ff6b3d"/>
      <stop offset="100%" stop-color="#b91c1c"/>
    </linearGradient>
    <linearGradient id="bruno-ring" x1="0%" y1="0%" x2="100%" y2="100%">
      <stop offset="0%" stop-color="#fff6c8"/>
      <stop offset="100%" stop-color="#ffc83d"/>
    </linearGradient>
  </defs>
  <circle cx="48" cy="48" r="45" fill="url(#bruno-ring)"/>
  <circle cx="48" cy="48" r="39" fill="url(#bruno-bg)"/>
  <ellipse cx="48" cy="52" rx="22" ry="20" fill="#ffd0a8"/>
  <path d="M24 36c4-10 14-16 24-16s20 6 24 16c-8-6-16-8-24-8s-16 2-24 8z" fill="#7f1d1d"/>
  <path d="M26 32 L30 22 L34 30 Z M62 30 L66 22 L70 32 Z" fill="#7f1d1d"/>
  <path d="M32 46 L38 44 M58 44 L64 46" stroke="#7f1d1d" stroke-width="2.5" stroke-linecap="round"/>
  <ellipse cx="38" cy="50" rx="5" ry="6" fill="#fff"/>
  <ellipse cx="58" cy="50" rx="5" ry="6" fill="#fff"/>
  <circle cx="38" cy="51" r="3.2" fill="#1a0d00"/>
  <circle cx="58" cy="51" r="3.2" fill="#1a0d00"/>
  <circle cx="39.5" cy="49" r="1.2" fill="#fff"/>
  <circle cx="59.5" cy="49" r="1.2" fill="#fff"/>
  <path d="M40 60 Q48 66 56 60" fill="none" stroke="#7f1d1d" stroke-width="2.4" stroke-linecap="round"/>
  <ellipse cx="34" cy="58" rx="4" ry="2.5" fill="#ff8a65" opacity="0.5"/>
  <ellipse cx="62" cy="58" rx="4" ry="2.5" fill="#ff8a65" opacity="0.5"/>
  <path d="M48 74 L54 82 L42 82 Z" fill="#ffedd5" opacity="0.9"/>
  <path d="M48 70 C44 76 40 80 40 80 C46 78 50 78 56 80 C56 80 52 76 48 70Z" fill="#fbbf24"/>
</svg>
