<svg xmlns="http://www.w3.org/2000/svg" viewBox="0 0 96 96" role="img" aria-label="Kiro avatar">
  <defs>
    <linearGradient id="kiro-bg" x1="0%" y1="0%" x2="100%" y2="100%">
      <stop offset="0%" stop-color="#38bdf8"/>
      <stop offset="100%" stop-color="#0369a1"/>
    </linearGradient>
    <linearGradient id="kiro-ring" x1="0%" y1="0%" x2="100%" y2="100%">
      <stop offset="0%" stop-color="#fff6c8"/>
      <stop offset="100%" stop-color="#ffc83d"/>
    </linearGradient>
  </defs>
  <circle cx="48" cy="48" r="45" fill="url(#kiro-ring)"/>
  <circle cx="48" cy="48" r="39" fill="url(#kiro-bg)"/>
  <ellipse cx="48" cy="52" rx="22" ry="20" fill="#cffafe"/>
  <path d="M26 40c6-8 14-12 22-12s16 4 22 12c-6-4-12-6-22-6s-16 2-22 6z" fill="#0c4a6e"/>
  <rect x="30" y="46" width="36" height="10" rx="5" fill="#0c4a6e" opacity="0.85"/>
  <rect x="32" y="48" width="32" height="6" rx="3" fill="#67e8f9" opacity="0.45"/>
  <ellipse cx="38" cy="50" rx="4.5" ry="5" fill="#fff"/>
  <ellipse cx="58" cy="50" rx="4.5" ry="5" fill="#fff"/>
  <circle cx="38" cy="51" r="2.8" fill="#082f49"/>
  <circle cx="58" cy="51" r="2.8" fill="#082f49"/>
  <circle cx="39" cy="49.5" r="1.1" fill="#fff"/>
  <circle cx="59" cy="49.5" r="1.1" fill="#fff"/>
  <path d="M42 60 Q48 63 54 59" fill="none" stroke="#0e7490" stroke-width="2.2" stroke-linecap="round"/>
  <circle cx="48" cy="78" r="10" fill="#0c4a6e" opacity="0.35"/>
  <path d="M40 82 L48 72 L56 82" fill="none" stroke="#7dd3fc" stroke-width="2.5" stroke-linecap="round" stroke-linejoin="round"/>
  <circle cx="48" cy="74" r="2" fill="#7dd3fc"/>
</svg>
