<svg xmlns="http://www.w3.org/2000/svg" viewBox="0 0 96 96" role="img" aria-label="Pico avatar">
  <defs>
    <linearGradient id="pico-bg" x1="0%" y1="0%" x2="100%" y2="100%">
      <stop offset="0%" stop-color="#fde047"/>
      <stop offset="100%" stop-color="#f59e0b"/>
    </linearGradient>
    <linearGradient id="pico-ring" x1="0%" y1="0%" x2="100%" y2="100%">
      <stop offset="0%" stop-color="#fff6c8"/>
      <stop offset="100%" stop-color="#ffc83d"/>
    </linearGradient>
  </defs>
  <circle cx="48" cy="48" r="45" fill="url(#pico-ring)"/>
  <circle cx="48" cy="48" r="39" fill="url(#pico-bg)"/>
  <ellipse cx="48" cy="54" rx="24" ry="22" fill="#fff7c2"/>
  <path d="M48 22c-8 10-12 18-12 26c0 6 4 10 12 10s12-4 12-10c0-8-4-16-12-26z" fill="#ea580c"/>
  <path d="M44 24 L48 16 L52 24" fill="#fbbf24"/>
  <ellipse cx="36" cy="52" rx="6" ry="7" fill="#fff"/>
  <ellipse cx="60" cy="52" rx="6" ry="7" fill="#fff"/>
  <circle cx="36" cy="53" r="3.5" fill="#422006"/>
  <circle cx="60" cy="53" r="3.5" fill="#422006"/>
  <circle cx="37.5" cy="51" r="1.4" fill="#fff"/>
  <circle cx="61.5" cy="51" r="1.4" fill="#fff"/>
  <path d="M38 66 Q48 72 58 66" fill="none" stroke="#ea580c" stroke-width="2.6" stroke-linecap="round"/>
  <path d="M68 40 L74 28 L70 42 Z" fill="#facc15"/>
  <path d="M70 30 L78 34 L72 38 Z" fill="#fef08a"/>
  <ellipse cx="34" cy="62" rx="5" ry="3" fill="#fdba74" opacity="0.45"/>
  <ellipse cx="62" cy="62" rx="5" ry="3" fill="#fdba74" opacity="0.45"/>
</svg>
