<svg xmlns="http://www.w3.org/2000/svg" viewBox="0 0 96 96" role="img" aria-label="Cute female player icon">
  <defs>
    <linearGradient id="pf-bg" x1="0%" y1="0%" x2="100%" y2="100%">
      <stop offset="0%" stop-color="#ff7eb8"/>
      <stop offset="100%" stop-color="#b83d7a"/>
    </linearGradient>
    <linearGradient id="pf-ring" x1="0%" y1="0%" x2="100%" y2="100%">
      <stop offset="0%" stop-color="#fff6c8"/>
      <stop offset="100%" stop-color="#ffc83d"/>
    </linearGradient>
  </defs>
  <circle cx="48" cy="48" r="45" fill="url(#pf-ring)"/>
  <circle cx="48" cy="48" r="39" fill="url(#pf-bg)"/>
  <ellipse cx="48" cy="52" rx="22" ry="20" fill="#ffd9c8"/>
  <circle cx="30" cy="36" r="7" fill="#8f2f62"/>
  <circle cx="66" cy="36" r="7" fill="#8f2f62"/>
  <path d="M36 34c6-6 14-8 24-6" fill="none" stroke="#8f2f62" stroke-width="3" stroke-linecap="round"/>
  <ellipse cx="38" cy="50" rx="5" ry="6" fill="#fff" opacity="0.95"/>
  <ellipse cx="58" cy="50" rx="5" ry="6" fill="#fff" opacity="0.95"/>
  <circle cx="38" cy="51" r="3" fill="#4a2040"/>
  <circle cx="58" cy="51" r="3" fill="#4a2040"/>
  <circle cx="39" cy="49.5" r="1.2" fill="#fff"/>
  <circle cx="59" cy="49.5" r="1.2" fill="#fff"/>
  <path d="M40 58 Q48 64 56 58" fill="none" stroke="#d65f7f" stroke-width="2.2" stroke-linecap="round"/>
  <ellipse cx="34" cy="56" rx="4" ry="2.5" fill="#ff9eb8" opacity="0.55"/>
  <ellipse cx="62" cy="56" rx="4" ry="2.5" fill="#ff9eb8" opacity="0.55"/>
  <circle cx="48" cy="78" r="11" fill="#5a1840" opacity="0.35"/>
  <path d="M48 82 C40 73 34 67 34 60 C34 54 38 50 44 50 C46.5 50 48 51.5 48 54 C48 51.5 49.5 50 52 50 C58 50 62 54 62 60 C62 67 56 73 48 82Z" fill="#ffd8ec"/>
</svg>
